# xmcd
#
# Track frame offsets: 
#        150
#        17430
#        41174
#        56622
#        67872
#        80819
#        98405
#        120085
#        138166
#        165608
#        180082
#        202698
#        218514
#
# Disc length: 3043 seconds
#
# Revision: 0
# Processed by: cddbd v1.5.2PL0 Copyright (c) Steve Scherf et al.
# Submitted via: ExactAudioCopy v0.95b4
#
DISCID=910be10d
DTITLE=Hucklebucks - Hip Shakin' Woman
DYEAR=2002
DGENRE=Blues
TTITLE0=Polly Put The Kettle On
TTITLE1=Some Day
TTITLE2=Fine Line
TTITLE3=Rae-Anne
TTITLE4=She's Big
TTITLE5=Hip Shakin' Woman
TTITLE6=You Won't Listen
TTITLE7=Big Town Playboy
TTITLE8=Garbage Man
TTITLE9=Sparky
TTITLE10=It's Too Late
TTITLE11=Hard Way
TTITLE12=Hot Carl
EXTD=
EXTT0=
EXTT1=
EXTT2=
EXTT3=
EXTT4=
EXTT5=
EXTT6=
EXTT7=
EXTT8=
EXTT9=
EXTT10=
EXTT11=
EXTT12=
PLAYORDER=
